HIERARCHY
ROOT Hips
{
	OFFSET 0.000000 0.000000 0.000000
	CHANNELS 6 Xposition Yposition Zposition Zrotation Yrotation Xrotation 
	JOINT LHipJoint
	{
		OFFSET 0.000000 0.000000 0.000000
		CHANNELS 3 Zrotation Yrotation Xrotation
		JOINT LeftUpLeg
		{
			OFFSET 1.363060 -1.794630 0.839290
			CHANNELS 3 Zrotation Yrotation Xrotation
			JOINT LeftLeg
			{
				OFFSET 2.448110 -6.726130 0.000000
				CHANNELS 3 Zrotation Yrotation Xrotation
				JOINT LeftFoot
				{
					OFFSET 2.562200 -7.039590 0.000000
					CHANNELS 3 Zrotation Yrotation Xrotation
					JOINT LeftToeBase
					{
						OFFSET 0.157640 -0.433110 2.322550
						CHANNELS 3 Zrotation Yrotation Xrotation
						End Site
						{
							OFFSET 0.000000 0.000000 0.000000
						}
					}
				}
			}
		}
	}
	JOINT RHipJoint
	{
		OFFSET 0.000000 0.000000 0.000000
		CHANNELS 3 Zrotation Yrotation Xrotation
		JOINT RightUpLeg
		{
			OFFSET -1.305520 -1.794630 0.839290
			CHANNELS 3 Zrotation Yrotation Xrotation
			JOINT RightLeg
			{
				OFFSET -2.542530 -6.985550 0.000000
				CHANNELS 3 Zrotation Yrotation Xrotation
				JOINT RightFoot
				{
					OFFSET -2.568260 -7.056230 0.000000
					CHANNELS 3 Zrotation Yrotation Xrotation
					JOINT RightToeBase
					{
						OFFSET -0.164730 -0.452590 2.363150
						CHANNELS 3 Zrotation Yrotation Xrotation
						End Site
						{
							OFFSET 0.000000 0.000000 0.000000
						}
					}
				}
			}
		}
	}
	JOINT LowerBack
	{
		OFFSET 0.000000 0.000000 0.000000
		CHANNELS 3 Zrotation Yrotation Xrotation
		JOINT Spine
		{
			OFFSET 0.028270 2.035590 -0.193380
			CHANNELS 3 Zrotation Yrotation Xrotation
			JOINT Spine1
			{
				OFFSET 0.056720 2.048850 -0.042750
				CHANNELS 3 Zrotation Yrotation Xrotation
				JOINT Neck
				{
					OFFSET 0.000000 0.000000 0.000000
					CHANNELS 3 Zrotation Yrotation Xrotation
					JOINT Neck1
					{
						OFFSET -0.054170 1.746240 0.172020
						CHANNELS 3 Zrotation Yrotation Xrotation
						JOINT Head
						{
							OFFSET 0.104070 1.761360 -0.123970
							CHANNELS 3 Zrotation Yrotation Xrotation
							End Site
							{
								OFFSET 0.000000 0.000000 0.000000
							}
						}
					}
				}
				JOINT LeftShoulder
				{
					OFFSET 0.000000 0.000000 0.000000
					CHANNELS 3 Zrotation Yrotation Xrotation
					JOINT LeftArm
					{
						OFFSET 3.362410 1.200890 -0.311210
						CHANNELS 3 Zrotation Yrotation Xrotation
						JOINT LeftForeArm
						{
							OFFSET 4.983000 -0.000000 -0.000000
							CHANNELS 3 Zrotation Yrotation Xrotation
							JOINT LeftHand
							{
								OFFSET 3.483560 -0.000000 -0.000000
								CHANNELS 3 Zrotation Yrotation Xrotation
								JOINT LeftFingerBase
								{
									OFFSET 0.000000 0.000000 0.000000
									CHANNELS 3 Zrotation Yrotation Xrotation
									JOINT LeftHandIndex1
									{
										OFFSET 0.715260 -0.000000 -0.000000
										CHANNELS 3 Zrotation Yrotation Xrotation
										End Site
										{
											OFFSET 0.000000 0.000000 0.000000
										}
									}
								}
								JOINT LThumb
								{
									OFFSET 0.000000 0.000000 0.000000
									CHANNELS 3 Zrotation Yrotation Xrotation
									End Site
									{
										OFFSET 0.000000 0.000000 0.000000
									}
								}
							}
						}
					}
				}
				JOINT RightShoulder
				{
					OFFSET 0.000000 0.000000 0.000000
					CHANNELS 3 Zrotation Yrotation Xrotation
					JOINT RightArm
					{
						OFFSET -3.136600 1.374050 -0.404650
						CHANNELS 3 Zrotation Yrotation Xrotation
						JOINT RightForeArm
						{
							OFFSET -5.241900 -0.000000 -0.000000
							CHANNELS 3 Zrotation Yrotation Xrotation
							JOINT RightHand
							{
								OFFSET -3.444170 -0.000000 -0.000000
								CHANNELS 3 Zrotation Yrotation Xrotation
								JOINT RightFingerBase
								{
									OFFSET 0.000000 0.000000 0.000000
									CHANNELS 3 Zrotation Yrotation Xrotation
									JOINT RightHandIndex1
									{
										OFFSET -0.622530 -0.000000 -0.000000
										CHANNELS 3 Zrotation Yrotation Xrotation
										End Site
										{
											OFFSET 0.000000 0.000000 0.000000
										}
									}
								}
								JOINT RThumb
								{
									OFFSET 0.000000 0.000000 0.000000
									CHANNELS 3 Zrotation Yrotation Xrotation
									End Site
									{
										OFFSET 0.000000 0.000000 0.000000
									}
								}
							}
						}
					}
				}
			}
		}
	}
}
MOTION
Frames: 9
Frame Time: 0.033333
4.611907 17.315501 -27.276810 -107.464796 79.924988 -117.967476 -32.050293 17.407038 -6.265156 -84.030293 42.105116 -149.961261 -63.223328 64.659116 -76.048094 -8.656905 38.187798 -9.004381 0.332822 0.041392 -46.500240 89.200416 22.500575 100.338407 103.931442 39.318537 167.338674 6.735025 21.430842 22.374444 -6.250920 -10.959986 -0.348227 -0.674178 0.114598 -32.952529 21.585006 -0.345889 7.411272 159.966485 -79.832762 -157.591912 -0.985982 3.162880 -45.885762 -7.080904 -7.814067 35.634186 -5.938907 -0.306209 0.293460 0.043780 -0.032280 -0.050572 33.238236 3.432859 167.267753 98.479190 -37.372140 -125.079544 52.562533 -76.280051 -48.104896 7.538854 4.345328 0.049283 0.389780 4.400483 0.089032 -0.040713 0.047731 -0.059906 0.035392 0.040508 -0.031128 -54.153992 -11.990281 175.143083 -110.297103 61.056993 -18.642877 -56.383023 -61.518513 24.568141 -3.361745 1.544347 -0.129563 1.791434 -0.443501 -0.066389 0.055500 0.066469 0.051953 0.049033 0.023015 0.038486 
4.457268 17.430821 -26.687843 -106.285137 79.741647 -116.722231 -32.562485 18.697687 -8.418776 -82.217882 38.676114 -150.454137 -60.734832 65.557696 -77.532682 -15.597630 45.077936 -5.014944 0.337788 0.049072 -47.903077 89.741811 22.442086 101.193701 104.379193 41.022698 167.159421 8.633224 20.254370 27.324878 -6.419306 -10.876017 -1.316696 -0.726494 0.100704 -33.484275 19.989892 -0.457117 7.184921 159.332427 -80.780781 -156.632203 -0.825535 2.111811 -45.575554 -7.324874 -6.684551 34.332086 -5.616750 -0.333215 0.540323 0.036244 -0.040747 -0.067624 35.325659 4.005022 167.762898 100.000727 -35.615368 -124.636642 71.913584 -79.079839 -67.278096 7.523307 3.082294 -0.388195 0.957060 3.431916 0.041627 -0.061633 0.064964 -0.043297 0.050514 0.056254 -0.028365 -54.894124 -10.788598 176.181545 -108.615598 60.875570 -17.649485 -58.157076 -63.851091 26.153821 -3.560922 2.021432 0.320214 1.727734 -0.225571 0.027657 0.057376 0.057260 0.035274 0.042260 0.043394 0.033732 
4.279159 17.555259 -26.124699 -104.923711 79.069741 -115.884468 -33.076681 19.782365 -8.846660 -80.934814 35.267888 -150.509775 -61.900301 64.828157 -79.955871 -18.880418 47.667965 -2.869509 0.645715 0.029971 -48.726256 89.822688 22.236369 101.906298 105.460962 42.651755 168.052085 9.110797 18.456405 31.533630 -4.508789 -10.591690 -1.272527 -0.751011 0.069257 -33.083191 19.818118 -0.909327 7.931343 160.669871 -80.337745 -156.840597 -0.887918 2.477388 -45.738699 -6.296923 -5.829494 32.883685 -4.167849 -0.343270 0.208165 0.042655 -0.042309 -0.037861 36.476763 4.055297 167.101447 102.247886 -34.361432 -124.754229 89.722662 -78.964824 -83.619147 6.436046 0.840341 0.005333 0.996270 2.021873 0.050578 -0.045770 0.056522 -0.050665 0.065972 0.064621 -0.022178 -54.786751 -11.320416 176.856993 -104.084856 60.140927 -14.253967 -56.343123 -64.316901 25.365659 -4.886697 2.927919 -0.103027 -0.090928 1.143662 0.024180 0.046501 0.054456 0.049572 0.050236 0.035587 0.055462 
4.101165 17.669684 -25.590736 -103.689833 78.919220 -114.452073 -33.141410 19.558450 -8.259749 -80.146457 34.840086 -149.533543 -64.176914 64.085198 -80.865390 -17.470946 45.679389 0.726032 0.976542 0.020069 -48.015438 89.750394 22.665244 103.736180 106.579826 44.928482 169.444291 9.313521 17.103643 34.968307 -3.855358 -10.615829 -0.141769 -0.753564 0.060029 -32.895830 20.006012 -1.353932 7.857254 160.262843 -80.337044 -156.642496 -0.617272 2.682737 -45.811890 -5.759689 -5.310048 31.419498 -3.916713 -0.262035 0.111167 0.051226 -0.069317 -0.039456 36.615885 2.778392 167.383395 104.149177 -34.116190 -126.885738 93.468396 -78.731062 -86.305890 7.040245 -0.245217 -0.103482 1.337134 1.743949 0.107167 -0.035030 0.075383 -0.062587 0.048375 0.071832 -0.035396 -54.898056 -10.585799 177.464190 -101.713642 59.976883 -11.714027 -49.430835 -63.564463 19.107189 -5.318216 3.411028 0.131140 -0.378114 0.845920 0.063282 0.042416 0.032289 0.042543 0.049063 0.060170 0.036717 
3.935486 17.769242 -25.089479 -103.079078 78.786434 -114.349168 -32.932685 19.239425 -6.335570 -79.202337 35.632429 -148.470882 -67.784098 63.203583 -81.696691 -15.975775 41.736119 1.507098 1.273374 0.000669 -46.788978 89.318619 22.972880 104.778311 107.945551 46.018424 171.501943 7.839729 15.776642 36.642214 -2.713121 -10.406571 0.947467 -0.618815 0.019835 -32.876022 20.635218 -1.893287 7.638223 161.507495 -79.533004 -157.746237 -0.974639 3.686561 -46.086882 -5.813011 -5.755811 31.129979 -3.747518 -0.283574 -0.052656 0.073211 -0.058046 -0.036281 36.774284 2.038779 166.974882 104.924546 -34.697418 -127.633310 89.308554 -78.634419 -81.942316 5.619606 -0.047705 -0.030637 0.143349 2.316529 0.066608 -0.031316 0.021589 -0.044702 0.040500 0.061555 -0.052987 -54.786628 -10.499236 177.789486 -100.098978 59.889077 -10.384245 -44.056964 -61.817423 14.437038 -4.778367 3.618496 -0.203884 -0.946308 0.782308 0.001215 0.066041 0.048224 0.085734 0.071283 0.029248 0.059040 
3.771840 17.855964 -24.620636 -102.391140 78.832680 -113.624412 -33.025374 18.318084 -5.177370 -79.294772 36.585162 -147.905947 -71.444578 61.118824 -81.609046 -13.427541 38.341166 3.774434 1.382853 -0.027118 -44.840240 89.567200 23.834192 105.558306 109.343133 47.193412 172.914617 7.765243 15.487047 37.917271 -2.225738 -10.718719 2.127750 -0.517821 0.018149 -32.887686 21.079400 -2.331168 6.845759 159.009475 -79.500568 -156.209455 -1.200863 3.531544 -45.762254 -5.980080 -6.897690 31.606305 -3.854037 -0.212672 0.280198 0.052461 -0.057315 -0.050721 37.420576 1.572019 167.870948 105.474473 -34.450046 -128.691852 75.004602 -78.658604 -68.069811 5.614012 1.453027 -0.080389 -0.159936 3.435808 0.072627 -0.030876 0.060220 -0.049192 0.065457 0.067906 -0.048647 -53.491880 -9.934869 177.169291 -100.794592 60.088067 -10.349358 -38.732770 -62.457474 11.046639 -4.395147 3.016760 0.102921 -0.603120 -0.062959 0.043671 0.041076 0.051377 0.051423 0.033941 0.051206 0.045666 
3.604323 17.927131 -24.170683 -101.474269 78.932932 -113.243597 -32.793116 18.705010 -4.864521 -81.798261 38.220688 -147.380405 -78.985303 57.116619 -82.980181 -10.708095 38.296026 5.263409 1.487119 -0.085517 -42.242308 90.235024 23.622450 106.189223 109.612922 48.459970 173.614733 7.237669 15.172732 38.171828 -0.866822 -10.565461 3.287449 -0.365149 0.004933 -32.528492 21.534639 -1.830962 6.906506 155.647902 -79.078365 -153.333884 -1.544942 3.581202 -45.154528 -5.481267 -7.213329 31.538870 -3.541021 -0.239765 0.978082 0.049990 -0.043952 -0.028090 37.103868 1.260918 168.509187 104.892968 -33.668412 -129.104966 52.538141 -76.408252 -45.489479 6.006121 2.072935 0.032933 -0.218194 4.131354 0.022133 -0.040964 0.037872 -0.035773 0.056890 0.073838 -0.053793 -52.179592 -10.701022 175.802607 -102.944006 59.922406 -11.110125 -33.689032 -63.370726 8.646489 -3.424814 1.853906 0.031911 -0.280488 -0.624112 0.013877 0.054463 0.038614 0.069337 0.042177 0.051358 0.051395 
3.443361 17.976228 -23.721451 -103.001713 78.898664 -115.049164 -32.860648 18.890247 -4.733546 -86.233950 39.334670 -147.240117 -86.220353 51.953505 -82.680272 -8.277153 37.977897 7.298634 1.306619 -0.138690 -39.051998 90.900905 24.089049 105.550344 110.176766 48.704386 174.045322 7.011892 15.035034 38.170455 -0.269431 -10.428323 3.833913 -0.099438 -0.034977 -32.225754 22.293546 -1.440849 7.291174 150.241404 -79.116724 -148.130340 -1.684756 3.449001 -45.767095 -5.155526 -7.081052 31.560927 -3.697578 -0.271935 0.939612 0.059408 -0.069059 -0.058965 36.378871 -0.000024 169.503087 103.244550 -33.592532 -128.778216 36.521567 -72.441521 -30.893334 6.550723 3.592665 0.401142 -0.572468 4.546854 0.058766 -0.036876 0.056446 -0.055401 0.068194 0.074807 -0.064317 -50.360940 -11.333083 174.686979 -105.402236 59.000702 -12.572078 -28.312799 -63.640070 5.604213 -3.195150 0.912631 0.207037 -0.322868 -1.498846 0.067341 0.039414 0.048438 0.041706 0.034676 0.037570 0.037968 
3.298543 18.000035 -23.263878 -104.878323 79.271740 -117.512040 -32.753321 18.980767 -4.833599 -92.847403 41.836756 -148.693964 -92.973585 47.839960 -81.340723 -7.091770 38.908505 5.450619 1.068756 -0.146154 -35.832012 90.996383 24.232334 105.519243 110.755429 49.562054 174.726332 6.214203 15.040275 38.373479 0.351642 -10.138621 4.175284 0.254903 -0.096733 -32.087929 22.692710 -0.406980 8.360741 147.262607 -79.156853 -145.788472 -1.543790 2.801813 -45.724054 -5.373926 -7.751370 32.672575 -3.456261 -0.238024 1.363165 0.068142 -0.062193 -0.028288 35.988648 -1.453352 170.766279 101.287004 -34.292659 -128.455233 27.109419 -66.794383 -21.321635 6.665658 4.722884 0.316310 -0.742497 5.465732 0.014104 -0.048072 0.061016 -0.030787 0.081799 0.056830 -0.054506 -48.096258 -12.784024 172.603165 -106.815204 57.657025 -13.087789 -26.167841 -61.849169 3.631787 -3.136382 0.120854 0.152782 -0.505101 -2.787764 0.049311 0.052373 0.050319 0.062151 0.030900 0.045292 0.052751 
